<svg xmlns="http://www.w3.org/2000/svg" version="1.1" xmlns:xlink="http://www.w3.org/1999/xlink" xmlns:svgjs="http://svgjs.com/svgjs" width="1920" height="1080" preserveAspectRatio="none" viewBox="0 0 1920 1080"><g mask="url(&quot;#SvgjsMask1102&quot;)" fill="none"><rect width="1920" height="1080" x="0" y="0" fill="rgba(243, 243, 243, 1)"></rect><use xlink:href="#SvgjsG1104" transform="translate(0, 0)" fill="rgba(235, 235, 235, 1)"></use><use xlink:href="#SvgjsG1104" transform="translate(0, 480)" fill="rgba(235, 235, 235, 1)"></use><use xlink:href="#SvgjsG1104" transform="translate(0, 960)" fill="rgba(235, 235, 235, 1)"></use><use xlink:href="#SvgjsG1104" transform="translate(480, 0)" fill="rgba(235, 235, 235, 1)"></use><use xlink:href="#SvgjsG1104" transform="translate(480, 480)" fill="rgba(235, 235, 235, 1)"></use><use xlink:href="#SvgjsG1104" transform="translate(480, 960)" fill="rgba(235, 235, 235, 1)"></use><use xlink:href="#SvgjsG1104" transform="translate(960, 0)" fill="rgba(235, 235, 235, 1)"></use><use xlink:href="#SvgjsG1104" transform="translate(960, 480)" fill="rgba(235, 235, 235, 1)"></use><use xlink:href="#SvgjsG1104" transform="translate(960, 960)" fill="rgba(235, 235, 235, 1)"></use><use xlink:href="#SvgjsG1104" transform="translate(1440, 0)" fill="rgba(235, 235, 235, 1)"></use><use xlink:href="#SvgjsG1104" transform="translate(1440, 480)" fill="rgba(235, 235, 235, 1)"></use><use xlink:href="#SvgjsG1104" transform="translate(1440, 960)" fill="rgba(235, 235, 235, 1)"></use></g><defs><mask id="SvgjsMask1102"><rect width="1920" height="1080" fill="#ffffff"></rect></mask><g id="SvgjsG1103"><path d="M0 5.2h3.15v5.6H0z"></path><path d="M6.257 14.325L2.407 10.8v-5.511l3.85-3.614L7.141 8z"></path><path d="M6.257 1.675S7.14 4.852 7.14 8s-0.883 6.325-0.883 6.325m7.927 0.947l-1.304-0.671c0.015-0.03 1.562-3.093 1.562-6.825 0-3.707-1.789-6.755-1.807-6.785l1.258-0.754c0.082 0.137 2.015 3.412 2.015 7.538 0 4.101-1.653 7.361-1.724 7.497z"></path><path d="M11.799 13.516l-1.304-0.671c0.011-0.021 1.138-2.258 1.137-4.979 0-2.712-1.301-4.915-1.313-4.937l1.257-0.753c0.063 0.104 1.523 2.579 1.523 5.691 0 3.088-1.248 5.545-1.302 5.649z"></path><path d="M9.543 11.59l-1.304-0.671c0.006-0.012 0.696-1.387 0.696-3.053 0-1.64-0.793-3-0.801-3.013l1.259-0.752c0.041 0.069 1.009 1.708 1.01 3.765 0 2.033-0.823 3.656-0.859 3.724z"></path></g><g id="SvgjsG1104"><use xlink:href="#SvgjsG1103" transform="translate(0, 0) scale(2)" fill="rgba(235, 235, 235, 1)"></use><use xlink:href="#SvgjsG1103" transform="translate(0, 48) scale(2)" fill="rgba(235, 235, 235, 1)"></use><use xlink:href="#SvgjsG1103" transform="translate(0, 96) scale(2)" fill="rgba(235, 235, 235, 1)"></use><use xlink:href="#SvgjsG1103" transform="translate(0, 144) scale(2)" fill="rgba(235, 235, 235, 1)"></use><use xlink:href="#SvgjsG1103" transform="translate(0, 192) scale(2)" fill="rgba(235, 235, 235, 1)"></use><use xlink:href="#SvgjsG1103" transform="translate(0, 240) scale(2)" fill="rgba(235, 235, 235, 1)"></use><use xlink:href="#SvgjsG1103" transform="translate(0, 288) scale(2)" fill="rgba(235, 235, 235, 1)"></use><use xlink:href="#SvgjsG1103" transform="translate(0, 336) scale(2)" fill="rgba(235, 235, 235, 1)"></use><use xlink:href="#SvgjsG1103" transform="translate(0, 384) scale(2)" fill="rgba(235, 235, 235, 1)"></use><use xlink:href="#SvgjsG1103" transform="translate(0, 432) scale(2)" fill="rgba(235, 235, 235, 1)"></use><use xlink:href="#SvgjsG1103" transform="translate(48, 0) scale(2)" fill="rgba(235, 235, 235, 1)"></use><use xlink:href="#SvgjsG1103" transform="translate(48, 48) scale(2)" fill="rgba(235, 235, 235, 1)"></use><use xlink:href="#SvgjsG1103" transform="translate(48, 96) scale(2)" fill="rgba(235, 235, 235, 1)"></use><use xlink:href="#SvgjsG1103" transform="translate(48, 144) scale(2)" fill="rgba(235, 235, 235, 1)"></use><use xlink:href="#SvgjsG1103" transform="translate(48, 192) scale(2)" fill="rgba(235, 235, 235, 1)"></use><use xlink:href="#SvgjsG1103" transform="translate(48, 240) scale(2)" fill="rgba(235, 235, 235, 1)"></use><use xlink:href="#SvgjsG1103" transform="translate(48, 288) scale(2)" fill="rgba(235, 235, 235, 1)"></use><use xlink:href="#SvgjsG1103" transform="translate(48, 336) scale(2)" fill="rgba(235, 235, 235, 1)"></use><use xlink:href="#SvgjsG1103" transform="translate(48, 384) scale(2)" fill="rgba(235, 235, 235, 1)"></use><use xlink:href="#SvgjsG1103" transform="translate(48, 432) scale(2)" fill="rgba(235, 235, 235, 1)"></use><use xlink:href="#SvgjsG1103" transform="translate(96, 0) scale(2)" fill="rgba(235, 235, 235, 1)"></use><use xlink:href="#SvgjsG1103" transform="translate(96, 48) scale(2)" fill="rgba(235, 235, 235, 1)"></use><use xlink:href="#SvgjsG1103" transform="translate(96, 96) scale(2)" fill="rgba(235, 235, 235, 1)"></use><use xlink:href="#SvgjsG1103" transform="translate(96, 144) scale(2)" fill="rgba(235, 235, 235, 1)"></use><use xlink:href="#SvgjsG1103" transform="translate(96, 192) scale(2)" fill="rgba(235, 235, 235, 1)"></use><use xlink:href="#SvgjsG1103" transform="translate(96, 240) scale(2)" fill="rgba(235, 235, 235, 1)"></use><use xlink:href="#SvgjsG1103" transform="translate(96, 288) scale(2)" fill="rgba(235, 235, 235, 1)"></use><use xlink:href="#SvgjsG1103" transform="translate(96, 336) scale(2)" fill="rgba(235, 235, 235, 1)"></use><use xlink:href="#SvgjsG1103" transform="translate(96, 384) scale(2)" fill="rgba(235, 235, 235, 1)"></use><use xlink:href="#SvgjsG1103" transform="translate(96, 432) scale(2)" fill="rgba(235, 235, 235, 1)"></use><use xlink:href="#SvgjsG1103" transform="translate(144, 0) scale(2)" fill="rgba(235, 235, 235, 1)"></use><use xlink:href="#SvgjsG1103" transform="translate(144, 48) scale(2)" fill="rgba(235, 235, 235, 1)"></use><use xlink:href="#SvgjsG1103" transform="translate(144, 96) scale(2)" fill="rgba(235, 235, 235, 1)"></use><use xlink:href="#SvgjsG1103" transform="translate(144, 144) scale(2)" fill="rgba(235, 235, 235, 1)"></use><use xlink:href="#SvgjsG1103" transform="translate(144, 192) scale(2)" fill="rgba(235, 235, 235, 1)"></use><use xlink:href="#SvgjsG1103" transform="translate(144, 240) scale(2)" fill="rgba(235, 235, 235, 1)"></use><use xlink:href="#SvgjsG1103" transform="translate(144, 288) scale(2)" fill="rgba(235, 235, 235, 1)"></use><use xlink:href="#SvgjsG1103" transform="translate(144, 336) scale(2)" fill="rgba(235, 235, 235, 1)"></use><use xlink:href="#SvgjsG1103" transform="translate(144, 384) scale(2)" fill="rgba(235, 235, 235, 1)"></use><use xlink:href="#SvgjsG1103" transform="translate(144, 432) scale(2)" fill="rgba(235, 235, 235, 1)"></use><use xlink:href="#SvgjsG1103" transform="translate(192, 0) scale(2)" fill="rgba(235, 235, 235, 1)"></use><use xlink:href="#SvgjsG1103" transform="translate(192, 48) scale(2)" fill="rgba(235, 235, 235, 1)"></use><use xlink:href="#SvgjsG1103" transform="translate(192, 96) scale(2)" fill="rgba(235, 235, 235, 1)"></use><use xlink:href="#SvgjsG1103" transform="translate(192, 144) scale(2)" fill="rgba(235, 235, 235, 1)"></use><use xlink:href="#SvgjsG1103" transform="translate(192, 192) scale(2)" fill="rgba(235, 235, 235, 1)"></use><use xlink:href="#SvgjsG1103" transform="translate(192, 240) scale(2)" fill="rgba(235, 235, 235, 1)"></use><use xlink:href="#SvgjsG1103" transform="translate(192, 288) scale(2)" fill="rgba(235, 235, 235, 1)"></use><use xlink:href="#SvgjsG1103" transform="translate(192, 336) scale(2)" fill="rgba(235, 235, 235, 1)"></use><use xlink:href="#SvgjsG1103" transform="translate(192, 384) scale(2)" fill="rgba(235, 235, 235, 1)"></use><use xlink:href="#SvgjsG1103" transform="translate(192, 432) scale(2)" fill="rgba(235, 235, 235, 1)"></use><use xlink:href="#SvgjsG1103" transform="translate(240, 0) scale(2)" fill="rgba(235, 235, 235, 1)"></use><use xlink:href="#SvgjsG1103" transform="translate(240, 48) scale(2)" fill="rgba(235, 235, 235, 1)"></use><use xlink:href="#SvgjsG1103" transform="translate(240, 96) scale(2)" fill="rgba(235, 235, 235, 1)"></use><use xlink:href="#SvgjsG1103" transform="translate(240, 144) scale(2)" fill="rgba(235, 235, 235, 1)"></use><use xlink:href="#SvgjsG1103" transform="translate(240, 192) scale(2)" fill="rgba(235, 235, 235, 1)"></use><use xlink:href="#SvgjsG1103" transform="translate(240, 240) scale(2)" fill="rgba(235, 235, 235, 1)"></use><use xlink:href="#SvgjsG1103" transform="translate(240, 288) scale(2)" fill="rgba(235, 235, 235, 1)"></use><use xlink:href="#SvgjsG1103" transform="translate(240, 336) scale(2)" fill="rgba(235, 235, 235, 1)"></use><use xlink:href="#SvgjsG1103" transform="translate(240, 384) scale(2)" fill="rgba(235, 235, 235, 1)"></use><use xlink:href="#SvgjsG1103" transform="translate(240, 432) scale(2)" fill="rgba(235, 235, 235, 1)"></use><use xlink:href="#SvgjsG1103" transform="translate(288, 0) scale(2)" fill="rgba(235, 235, 235, 1)"></use><use xlink:href="#SvgjsG1103" transform="translate(288, 48) scale(2)" fill="rgba(235, 235, 235, 1)"></use><use xlink:href="#SvgjsG1103" transform="translate(288, 96) scale(2)" fill="rgba(235, 235, 235, 1)"></use><use xlink:href="#SvgjsG1103" transform="translate(288, 144) scale(2)" fill="rgba(235, 235, 235, 1)"></use><use xlink:href="#SvgjsG1103" transform="translate(288, 192) scale(2)" fill="rgba(235, 235, 235, 1)"></use><use xlink:href="#SvgjsG1103" transform="translate(288, 240) scale(2)" fill="rgba(235, 235, 235, 1)"></use><use xlink:href="#SvgjsG1103" transform="translate(288, 288) scale(2)" fill="rgba(235, 235, 235, 1)"></use><use xlink:href="#SvgjsG1103" transform="translate(288, 336) scale(2)" fill="rgba(235, 235, 235, 1)"></use><use xlink:href="#SvgjsG1103" transform="translate(288, 384) scale(2)" fill="rgba(235, 235, 235, 1)"></use><use xlink:href="#SvgjsG1103" transform="translate(288, 432) scale(2)" fill="rgba(235, 235, 235, 1)"></use><use xlink:href="#SvgjsG1103" transform="translate(336, 0) scale(2)" fill="rgba(235, 235, 235, 1)"></use><use xlink:href="#SvgjsG1103" transform="translate(336, 48) scale(2)" fill="rgba(235, 235, 235, 1)"></use><use xlink:href="#SvgjsG1103" transform="translate(336, 96) scale(2)" fill="rgba(235, 235, 235, 1)"></use><use xlink:href="#SvgjsG1103" transform="translate(336, 144) scale(2)" fill="rgba(235, 235, 235, 1)"></use><use xlink:href="#SvgjsG1103" transform="translate(336, 192) scale(2)" fill="rgba(235, 235, 235, 1)"></use><use xlink:href="#SvgjsG1103" transform="translate(336, 240) scale(2)" fill="rgba(235, 235, 235, 1)"></use><use xlink:href="#SvgjsG1103" transform="translate(336, 288) scale(2)" fill="rgba(235, 235, 235, 1)"></use><use xlink:href="#SvgjsG1103" transform="translate(336, 336) scale(2)" fill="rgba(235, 235, 235, 1)"></use><use xlink:href="#SvgjsG1103" transform="translate(336, 384) scale(2)" fill="rgba(235, 235, 235, 1)"></use><use xlink:href="#SvgjsG1103" transform="translate(336, 432) scale(2)" fill="rgba(235, 235, 235, 1)"></use><use xlink:href="#SvgjsG1103" transform="translate(384, 0) scale(2)" fill="rgba(235, 235, 235, 1)"></use><use xlink:href="#SvgjsG1103" transform="translate(384, 48) scale(2)" fill="rgba(235, 235, 235, 1)"></use><use xlink:href="#SvgjsG1103" transform="translate(384, 96) scale(2)" fill="rgba(235, 235, 235, 1)"></use><use xlink:href="#SvgjsG1103" transform="translate(384, 144) scale(2)" fill="rgba(235, 235, 235, 1)"></use><use xlink:href="#SvgjsG1103" transform="translate(384, 192) scale(2)" fill="rgba(235, 235, 235, 1)"></use><use xlink:href="#SvgjsG1103" transform="translate(384, 240) scale(2)" fill="rgba(235, 235, 235, 1)"></use><use xlink:href="#SvgjsG1103" transform="translate(384, 288) scale(2)" fill="rgba(235, 235, 235, 1)"></use><use xlink:href="#SvgjsG1103" transform="translate(384, 336) scale(2)" fill="rgba(235, 235, 235, 1)"></use><use xlink:href="#SvgjsG1103" transform="translate(384, 384) scale(2)" fill="rgba(235, 235, 235, 1)"></use><use xlink:href="#SvgjsG1103" transform="translate(384, 432) scale(2)" fill="rgba(235, 235, 235, 1)"></use><use xlink:href="#SvgjsG1103" transform="translate(432, 0) scale(2)" fill="rgba(235, 235, 235, 1)"></use><use xlink:href="#SvgjsG1103" transform="translate(432, 48) scale(2)" fill="rgba(235, 235, 235, 1)"></use><use xlink:href="#SvgjsG1103" transform="translate(432, 96) scale(2)" fill="rgba(235, 235, 235, 1)"></use><use xlink:href="#SvgjsG1103" transform="translate(432, 144) scale(2)" fill="rgba(235, 235, 235, 1)"></use><use xlink:href="#SvgjsG1103" transform="translate(432, 192) scale(2)" fill="rgba(235, 235, 235, 1)"></use><use xlink:href="#SvgjsG1103" transform="translate(432, 240) scale(2)" fill="rgba(235, 235, 235, 1)"></use><use xlink:href="#SvgjsG1103" transform="translate(432, 288) scale(2)" fill="rgba(235, 235, 235, 1)"></use><use xlink:href="#SvgjsG1103" transform="translate(432, 336) scale(2)" fill="rgba(235, 235, 235, 1)"></use><use xlink:href="#SvgjsG1103" transform="translate(432, 384) scale(2)" fill="rgba(235, 235, 235, 1)"></use><use xlink:href="#SvgjsG1103" transform="translate(432, 432) scale(2)" fill="rgba(235, 235, 235, 1)"></use></g></defs></svg>